/vscmnt/brussel_pixiu_data/_data_brussel/112/vsc11236/PredSimResults/SUBJ10opt3D/weighted-trackIG/worker_03.mot
version=1
nRows=6
nColumns=50
inDegrees=yes
endheader
                time	         pelvis_tilt	         pelvis_list	     pelvis_rotation	           pelvis_tx	           pelvis_ty	           pelvis_tz	       hip_flexion_r	     hip_adduction_r	      hip_rotation_r	        knee_angle_r	       ankle_angle_r	         mtp_angle_r	       hip_flexion_l	     hip_adduction_l	      hip_rotation_l	        knee_angle_l	       ankle_angle_l	         mtp_angle_l	    lumbar_extension	      lumbar_bending	     lumbar_rotation	 ercspn_r/activation	 intobl_r/activation	 extobl_r/activation	    abd_r/activation	    add_r/activation	hamstrings_r/activation	bifemsh_r/activation	glut_max_r/activation	iliopsoas_r/activation	rect_fem_r/activation	  vasti_r/activation	gastroc_r/activation	 soleus_r/activation	tib_ant_r/activation	 ercspn_l/activation	 intobl_l/activation	 extobl_l/activation	    abd_l/activation	    add_l/activation	hamstrings_l/activation	bifemsh_l/activation	glut_max_l/activation	iliopsoas_l/activation	rect_fem_l/activation	  vasti_l/activation	gastroc_l/activation	 soleus_l/activation	tib_ant_l/activation	
          1.16609914	         -4.71933565	         -0.91781657	          6.67084584	          1.30603103	          0.82117026	         -0.01339107	         31.18130126	         -1.40413883	         -5.59015159	         -7.46652768	          2.96046590	          0.26196349	        -15.06870326	         -0.43839080	         -0.15580273	         -6.57826701	          8.93271148	         26.98758042	         -6.23046899	         -0.37121876	         -7.14904902	          0.10635831	          0.14278023	          0.00999999	          0.00999999	          0.22058956	          0.11977251	          0.18660036	          0.05950082	          0.10509416	          0.00999999	          0.00999999	          0.01703705	          0.01295534	          0.29676077	          0.09791249	          0.00999999	          0.00999999	          0.05893957	          0.00999999	          0.01456239	          0.22118231	          0.02034819	          0.48862363	          0.00999999	          0.00999999	          0.32904862	          0.26550616	          0.02343384	
          1.17776013	         -4.75312742	         -0.91912039	          6.80453735	          1.32183879	          0.81973765	         -0.01302348	         31.12799536	         -1.27783368	         -5.28963022	         -9.24189079	          2.58997115	          0.24713378	        -15.07780327	         -0.60192527	         -0.46954619	         -8.46774256	          8.29595797	         28.72490338	         -5.97727407	          0.14778866	         -7.48591441	          0.08905122	          0.11954641	          0.00999999	          0.00999999	          0.18469426	          0.10106668	          0.15623593	          0.11010171	          0.08799278	          0.00999999	          0.00999999	          0.01426470	          0.01084719	          0.36596009	          0.11509418	          0.00999999	          0.00999999	          0.04934867	          0.02976075	          0.01764683	          0.18519055	          0.01703705	          0.40911265	          0.00999999	          0.00999999	          0.28982766	          0.25390342	          0.01962058	
          1.18942112	         -4.77770317	         -0.93691666	          6.90022627	          1.33788866	          0.81862874	         -0.01252153	         30.89219080	         -1.14129460	         -5.04128634	        -10.71206121	          2.11789316	          0.23749942	        -14.91998174	         -0.79718019	         -0.81173421	        -10.67049000	          7.47057786	         30.44243382	         -5.70831716	          0.67788834	         -7.79076225	          0.10380201	          0.10009329	          0.00999999	          0.05344754	          0.17322639	          0.08763360	          0.13081253	          0.12616162	          0.07367420	          0.00999999	          0.00999999	          0.01194349	          0.00999999	          0.42485230	          0.12676043	          0.00999999	          0.00999999	          0.04131844	          0.02491795	          0.01477526	          0.15505553	          0.01426470	          0.34254004	          0.00999999	          0.00999999	          0.24266563	          0.23682192	          0.01642783	
          1.20108211	         -4.79410526	         -0.95019435	          6.95793205	          1.35397093	          0.81793771	         -0.01189262	         30.58123944	         -1.00437235	         -4.89818308	        -12.06655247	          1.65900614	          0.22410741	        -14.55272887	         -1.00209869	         -1.18492986	        -13.22558109	          6.43837095	         32.03748000	         -5.44710623	          1.19578068	         -8.05810687	          0.10861499	          0.08380567	          0.00999999	          0.09559464	          0.21021025	          0.07443430	          0.10952614	          0.13223131	          0.06168561	          0.00999999	          0.00999999	          0.00999999	          0.00999999	          0.45596455	          0.15494427	          0.00999999	          0.00999999	          0.03459492	          0.02329452	          0.01999637	          0.12982422	          0.01194349	          0.28680042	          0.00999999	          0.00999999	          0.20317801	          0.21662434	          0.01375462	
          1.21274310	         -4.80256459	         -0.96131077	          6.98149737	          1.36993141	          0.81772793	         -0.01115409	         30.26514251	         -0.86702292	         -4.83712865	        -13.43433410	          1.34890121	          0.21080352	        -13.94593241	         -1.22143554	         -1.58982451	        -16.15567971	          5.22155482	         33.32796749	         -5.20547913	          1.70341352	         -8.28654543	          0.10701097	          0.07016844	          0.00999999	          0.12613482	          0.23399410	          0.06744625	          0.09170357	          0.13418010	          0.05164786	          0.00999999	          0.04072708	          0.00999999	          0.00999999	          0.46877931	          0.17930914	          0.00999999	          0.00999999	          0.02896548	          0.08640717	          0.02891070	          0.10869865	          0.00999999	          0.24013099	          0.00999999	          0.00999999	          0.17011599	          0.18435382	          0.01151641	
          1.22440409	         -4.80487716	         -0.96865154	          6.97147934	          1.38564214	          0.81808252	         -0.01033215	         29.93864444	         -0.72988489	         -4.83334543	        -14.78925391	          1.24415672	          0.19609605	        -13.07261221	         -1.45455450	         -2.04355349	        -19.47568652	          3.86058702	         34.05513644	         -4.99220379	          2.19872166	         -8.47442786	          0.10249054	          0.05875033	          0.00999999	          0.14396267	          0.25087219	          0.06571236	          0.07678116	          0.12321734	          0.04324349	          0.00999999	          0.08161896	          0.00999999	          0.00999999	          0.46220082	          0.19455399	          0.00999999	          0.00999999	          0.02425209	          0.15907081	          0.03648035	          0.09101073	          0.00999999	          0.20105582	          0.00999999	          0.00999999	          0.14243397	          0.15435495	          0.00999999	
